<svg width="21" height="21" viewBox="0 0 21 21" fill="none" xmlns="http://www.w3.org/2000/svg">
<path d="M16.9583 8.93337C16.9583 8.76761 16.8925 8.60864 16.7753 8.49143C16.6581 8.37422 16.4991 8.30837 16.3333 8.30837C16.1676 8.30837 16.0086 8.37422 15.8914 8.49143C15.7742 8.60864 15.7083 8.76761 15.7083 8.93337H16.9583ZM5.29166 8.93337C5.29166 8.76761 5.22581 8.60864 5.1086 8.49143C4.99139 8.37422 4.83242 8.30837 4.66666 8.30837C4.5009 8.30837 4.34193 8.37422 4.22472 8.49143C4.10751 8.60864 4.04166 8.76761 4.04166 8.93337H5.29166ZM17.5583 11.0417C17.6155 11.1031 17.6845 11.1524 17.7612 11.1865C17.8379 11.2207 17.9206 11.239 18.0046 11.2405C18.0885 11.242 18.1718 11.2266 18.2497 11.1951C18.3275 11.1637 18.3982 11.1169 18.4575 11.0576C18.5169 10.9982 18.5637 10.9275 18.5951 10.8497C18.6265 10.7719 18.642 10.6885 18.6405 10.6046C18.639 10.5207 18.6206 10.4379 18.5865 10.3613C18.5523 10.2846 18.5031 10.2156 18.4417 10.1584L17.5583 11.0417ZM10.5 3.10004L10.9417 2.65837C10.8245 2.54133 10.6656 2.47559 10.5 2.47559C10.3344 2.47559 10.1755 2.54133 10.0583 2.65837L10.5 3.10004ZM2.55833 10.1584C2.49692 10.2156 2.44767 10.2846 2.41351 10.3613C2.37935 10.4379 2.36098 10.5207 2.3595 10.6046C2.35802 10.6885 2.37346 10.7719 2.40489 10.8497C2.43633 10.9275 2.48311 10.9982 2.54246 11.0576C2.60181 11.1169 2.67251 11.1637 2.75033 11.1951C2.82815 11.2266 2.91151 11.242 2.99543 11.2405C3.07935 11.239 3.16211 11.2207 3.23878 11.1865C3.31544 11.1524 3.38444 11.1031 3.44166 11.0417L2.55833 10.1584ZM6.33333 18.725H14.6667V17.475H6.33333V18.725ZM16.9583 16.4334V8.93337H15.7083V16.4334H16.9583ZM5.29166 16.4334V8.93337H4.04166V16.4334H5.29166ZM18.4417 10.1584L10.9417 2.65837L10.0583 3.5417L17.5583 11.0417L18.4417 10.1584ZM10.0583 2.65837L2.55833 10.1584L3.44166 11.0417L10.9417 3.5417L10.0583 2.65837ZM14.6667 18.725C15.2744 18.725 15.8573 18.4836 16.2871 18.0538C16.7169 17.6241 16.9583 17.0412 16.9583 16.4334H15.7083C15.7083 17.0084 15.2417 17.475 14.6667 17.475V18.725ZM6.33333 17.475C5.75833 17.475 5.29166 17.0084 5.29166 16.4334H4.04166C4.04166 17.0412 4.28311 17.6241 4.71288 18.0538C5.14265 18.4836 5.72554 18.725 6.33333 18.725V17.475Z" fill="black"/>
</svg>
