<svg width="19" height="19" viewBox="0 0 19 19" fill="none" xmlns="http://www.w3.org/2000/svg">
<g clip-path="url(#clip0_91_432)">
<path d="M9.5 18.6001C4.52919 18.6001 0.5 14.5709 0.5 9.6001C0.5 4.62929 4.52919 0.600098 9.5 0.600098C14.4708 0.600098 18.5 4.62929 18.5 9.6001C18.5 11.987 17.5518 14.2762 15.864 15.9641C14.1761 17.6519 11.8869 18.6001 9.5 18.6001ZM9.5 1.7251C5.15075 1.7251 1.625 5.25085 1.625 9.6001C1.625 13.9493 5.15075 17.4751 9.5 17.4751C13.8492 17.4751 17.375 13.9493 17.375 9.6001C17.375 7.51152 16.5453 5.50848 15.0685 4.03163C13.5916 2.55478 11.5886 1.7251 9.5 1.7251Z" fill="black" fill-opacity="0.5"/>
<path d="M13.4375 9.0376H10.0625V5.6626H8.9375V9.0376H5.5625V10.1626H8.9375V13.5376H10.0625V10.1626H13.4375V9.0376Z" fill="black" fill-opacity="0.5"/>
</g>
<defs>
<clipPath id="clip0_91_432">
<rect width="18" height="18" fill="white" transform="translate(0.5 0.600098)"/>
</clipPath>
</defs>
</svg>
