<svg width="21" height="21" viewBox="0 0 21 21" fill="none" xmlns="http://www.w3.org/2000/svg">
<g clip-path="url(#clip0_91_435)">
<path d="M18.5611 16.0612C18.0254 15.5836 17.5564 15.0361 17.1667 14.4334C16.7408 13.6017 16.4858 12.6931 16.4167 11.7612V9.01674C16.4204 7.55319 15.8895 6.13867 14.9238 5.03894C13.958 3.93922 12.624 3.22999 11.1722 3.04452V2.32785C11.1722 2.13115 11.0941 1.9425 10.955 1.80341C10.8159 1.66432 10.6273 1.58618 10.4306 1.58618C10.2339 1.58618 10.0452 1.66432 9.90613 1.80341C9.76704 1.9425 9.6889 2.13115 9.6889 2.32785V3.05563C8.25016 3.25447 6.93222 3.96799 5.9792 5.06402C5.02617 6.16005 4.50264 7.56432 4.50557 9.01674V11.7612C4.43643 12.6931 4.18142 13.6017 3.75557 14.4334C3.37273 15.0347 2.91123 15.5821 2.38335 16.0612C2.32409 16.1132 2.27659 16.1773 2.24402 16.2492C2.21145 16.321 2.19456 16.399 2.19446 16.4778V17.2334C2.19446 17.3807 2.25299 17.5221 2.35718 17.6262C2.46136 17.7304 2.60267 17.789 2.75001 17.789H18.1945C18.3418 17.789 18.4831 17.7304 18.5873 17.6262C18.6915 17.5221 18.75 17.3807 18.75 17.2334V16.4778C18.7499 16.399 18.733 16.321 18.7005 16.2492C18.6679 16.1773 18.6204 16.1132 18.5611 16.0612ZM3.35001 16.6778C3.86679 16.1784 4.32188 15.6189 4.70557 15.0112C5.24212 14.0067 5.55484 12.898 5.62224 11.7612V9.01674C5.6002 8.36565 5.70942 7.71678 5.94337 7.10877C6.17733 6.50077 6.53124 5.94606 6.98404 5.47768C7.43684 5.0093 7.97926 4.63683 8.579 4.38244C9.17875 4.12806 9.82355 3.99696 10.475 3.99696C11.1265 3.99696 11.7713 4.12806 12.371 4.38244C12.9708 4.63683 13.5132 5.0093 13.966 5.47768C14.4188 5.94606 14.7727 6.50077 15.0067 7.10877C15.2406 7.71678 15.3498 8.36565 15.3278 9.01674V11.7612C15.3952 12.898 15.7079 14.0067 16.2445 15.0112C16.6281 15.6189 17.0832 16.1784 17.6 16.6778H3.35001Z" fill="black" fill-opacity="0.49"/>
<path d="M10.5 19.6446C10.85 19.6365 11.1858 19.505 11.4481 19.2732C11.7104 19.0414 11.8823 18.7242 11.9333 18.3779H9.01111C9.06359 18.7337 9.24351 19.0582 9.51739 19.2912C9.79126 19.5242 10.1405 19.6498 10.5 19.6446Z" fill="black"/>
</g>
<defs>
<clipPath id="clip0_91_435">
<rect width="20" height="20" fill="white" transform="translate(0.5 0.600098)"/>
</clipPath>
</defs>
</svg>
