<?xml version="1.0" encoding="utf-8"?>
<!-- Generator: Adobe Illustrator 26.2.1, SVG Export Plug-In . SVG Version: 6.00 Build 0)  -->
<svg version="1.1" xmlns="http://www.w3.org/2000/svg" xmlns:xlink="http://www.w3.org/1999/xlink" x="0px" y="0px"
	 viewBox="0 0 512 144" style="enable-background:new 0 0 512 144;" xml:space="preserve">
<g id="Layer_1">
</g>
<g id="logotype-light">
	<g>
		<path style="fill:#FFFFFF;" d="M108.1262741,109.3791122l14.9516449,14.1309891
			c-13.9117737,13.5829468-30.6171417,20.3730164-50.1132965,20.3730164c-19.9374008,0-36.9139786-7.0078735-50.9339561-21.0306702
			C8.0078802,108.8324738,1,91.855896,1,71.9184952c0-19.8249779,7.0078802-36.7481575,21.0306664-50.7695389
			C36.0506439,7.1289783,53.0272217,0.116882,72.9646225,0.116882c19.8249817,0,36.7481613,7.0120964,50.7695389,21.0320721
			l-14.622818,14.4584064c-9.9686966-9.9658871-22.0157318-14.951643-36.1467209-14.951643
			c-14.2405968,0-26.3705406,5.0110493-36.3926392,15.0331478C26.548481,45.712368,21.5374317,57.7875061,21.5374317,71.9184952
			c0,14.2406006,5.0110493,26.3705444,15.0345516,36.3926392c10.0220985,10.0235062,22.1520424,15.0345535,36.3926392,15.0345535
			C86.5461655,123.3456879,98.267189,118.6901627,108.1262741,109.3791122z"/>
		<path style="fill:#FFFFFF;" d="M234.6405029,119.2381973h-77.8792267l-9.5302734,20.5374374h-22.673378L187.8140411,4.2243686
			h15.7736969l63.5852356,135.5512695h-23.0021973L234.6405029,119.2381973z M225.1116486,98.6993637l-29.2470398-62.5987663
			l-29.2456512,62.5987663H225.1116486z"/>
		<path style="fill:#FFFFFF;" d="M360.4971008,32.4849434c-5.1487732-4.1608868-10.7893677-7.1722927-16.9231873-9.0370331
			c-6.1352234-1.8605251-11.9402466-2.7921925-17.4164124-2.7921925c-7.8861389,0-14.2391968,1.6989231-19.0591431,5.0925541
			c-4.8213501,3.3964386-7.2284851,7.5587311-7.2284851,12.4882736c0,4.4925194,1.6145935,8.4074898,4.8466187,11.7477226
			c3.2292175,3.3416367,7.8580627,5.8893166,13.883667,7.6388283l32.5324707,8.8726158
			c9.3082581,2.8498077,16.8121948,7.450531,22.5089722,13.8021698c5.6940002,6.3530426,8.5437927,14.4584045,8.5437927,24.3160934
			c0,11.3936005-4.8213196,20.7847519-14.4584045,28.1790695c-9.6398621,7.3929138-22.4555664,11.0900726-38.4470825,11.0900726
			c-12.9266968,0-24.2092896-2.602478-33.846344-7.8046417c-9.6398926-5.2007599-17.6904297-12.3477554-24.1531067-21.4409943
			l16.7587891-12.1594543c5.9160156,7.668335,12.405365,13.0630112,19.4708557,16.1840286
			c7.0640869,3.1224213,14.2124939,4.6836319,21.440979,4.6836319c9.9659119,0,17.909668-1.8338242,23.8242798-5.5042877
			c5.9146118-3.6690521,8.8726196-8.2416687,8.8726196-13.7192535c0-4.3801041-1.478302-8.1334686-4.4363098-11.2558899
			c-2.9580078-3.1210175-7.450531-5.5028839-13.4733582-7.1470032l-30.3965149-8.5437927
			c-11.0647888-3.393631-19.4694519-8.5437927-25.2196655-15.4434738
			c-5.7515869-6.9010811-8.6266785-14.7886353-8.6266785-23.6598511c0-11.0633736,4.3266907-20.1538048,12.9801025-27.2755089
			C301.127533,3.6777339,312.3567505,0.116882,326.1575012,0.116882c8.6520081,0,17.6061096,1.6722232,26.8637695,5.0124545
			c9.2548523,3.3416357,17.6637268,8.2964754,25.2210693,14.8687353L360.4971008,32.4849434z"/>
		<path style="fill:#FFFFFF;" d="M427.3691711,4.2243686v135.5512695h-20.5388489V4.2243686H427.3691711z M485.3686218,139.7756348
			l-49.1268311-67.8571396l49.1268311-67.6941299H511l-49.1268311,67.6941299L511,139.7756348H485.3686218z"/>
	</g>
	<g>
	</g>
	<g>
	</g>
	<g>
	</g>
	<g>
	</g>
	<g>
	</g>
	<g>
	</g>
	<g>
	</g>
	<g>
	</g>
	<g>
	</g>
	<g>
	</g>
	<g>
	</g>
	<g>
	</g>
	<g>
	</g>
	<g>
	</g>
	<g>
	</g>
</g>
</svg>
