<?xml version="1.0" encoding="utf-8"?>
<!-- Generator: Adobe Illustrator 26.2.1, SVG Export Plug-In . SVG Version: 6.00 Build 0)  -->
<svg version="1.1" xmlns="http://www.w3.org/2000/svg" xmlns:xlink="http://www.w3.org/1999/xlink" x="0px" y="0px"
	 viewBox="0 0 512 512" style="enable-background:new 0 0 512 512;" xml:space="preserve">
<g id="Layer_1">
</g>
<g id="logo-light">
	<g>
		
			<linearGradient id="SVGID_1_" gradientUnits="userSpaceOnUse" x1="143.3772736" y1="288.6210327" x2="368.6148682" y2="63.3834343">
			<stop  offset="0" style="stop-color:#FFFFFF"/>
			<stop  offset="0.4551865" style="stop-color:#FFFFFF"/>
			<stop  offset="0.5" style="stop-color:#FFFFFF"/>
			<stop  offset="1" style="stop-color:#FFFFFF;stop-opacity:0"/>
		</linearGradient>
		
			<circle style="fill:none;stroke:url(#SVGID_1_);stroke-width:14.5248823;stroke-miterlimit:10;" cx="255.9960632" cy="176.0022278" r="152.0045776"/>
		<g>
			<path style="fill:#FFFFFF;" d="M153.75,458.3457031l10.390625,9.8203125
				c-9.6679688,9.4394531-21.2773438,14.1582031-34.8261719,14.1582031c-13.8554688,0-25.6533203-4.8701172-35.3964844-14.6152344
				c-9.7451172-9.7431641-14.6152344-21.5410156-14.6152344-35.3964844c0-13.7773438,4.8701172-25.5380859,14.6152344-35.2822266
				c9.7431641-9.7431641,21.5410156-14.6162109,35.3964844-14.6162109c13.7773438,0,25.5380859,4.8730469,35.2822266,14.6162109
				l-10.1621094,10.0478516c-6.9277344-6.9257812-15.2998047-10.390625-25.1201172-10.390625
				c-9.8964844,0-18.3261719,3.4824219-25.2910156,10.4472656c-6.9658203,6.9658203-10.4482422,15.3574219-10.4482422,25.1777344
				c0,9.8964844,3.4824219,18.3261719,10.4482422,25.2910156c6.9648438,6.9658203,15.3945312,10.4482422,25.2910156,10.4482422
				C138.7529297,468.0517578,146.8984375,464.8164062,153.75,458.3457031z"/>
			<path style="fill:#FFFFFF;" d="M241.6708984,465.1972656h-54.1220703l-6.6230469,14.2724609h-15.7568359l43.9599609-94.2011719
				h10.9619141l44.1884766,94.2011719h-15.9853516L241.6708984,465.1972656z M235.0488281,450.9238281l-20.3251953-43.5029297
				l-20.3242188,43.5029297H235.0488281z"/>
			<path style="fill:#FFFFFF;" d="M329.1347656,404.9082031c-3.578125-2.8916016-7.4980469-4.984375-11.7607422-6.2802734
				c-4.2636719-1.2929688-8.2978516-1.9404297-12.1035156-1.9404297c-5.4804688,0-9.8955078,1.1806641-13.2451172,3.5390625
				c-3.3505859,2.3603516-5.0234375,5.2529297-5.0234375,8.6787109c0,3.1220703,1.1220703,5.8427734,3.3681641,8.1640625
				c2.2441406,2.3222656,5.4609375,4.0927734,9.6484375,5.3085938l22.6083984,6.1660156
				c6.46875,1.9804688,11.6835938,5.1777344,15.6425781,9.5917969c3.9570312,4.4150391,5.9375,10.0478516,5.9375,16.8984375
				c0,7.9179688-3.3505859,14.4443359-10.0478516,19.5830078c-6.6992188,5.1376953-15.6054688,7.7070312-26.71875,7.7070312
				c-8.9833984,0-16.8242188-1.8085938-23.5214844-5.4238281C277.2197266,473.2861328,271.625,468.3193359,267.1337891,462
				l11.6464844-8.4501953c4.1113281,5.3291016,8.6210938,9.078125,13.53125,11.2470703
				c4.9091797,2.1699219,9.8769531,3.2548828,14.9003906,3.2548828c6.9257812,0,12.4462891-1.2744141,16.5566406-3.8251953
				c4.1103516-2.5498047,6.1660156-5.7275391,6.1660156-9.5341797c0-3.0439453-1.0273438-5.6523438-3.0830078-7.8222656
				c-2.0556641-2.1689453-5.1777344-3.8242188-9.3632812-4.9667969l-21.1240234-5.9375
				c-7.6894531-2.3583984-13.5302734-5.9375-17.5263672-10.7324219c-3.9970703-4.7958984-5.9951172-10.2773438-5.9951172-16.4423828
				c0-7.6884766,3.0068359-14.0058594,9.0205078-18.9550781c6.0126953-4.9472656,13.8164062-7.421875,23.4072266-7.421875
				c6.0126953,0,12.2353516,1.1621094,18.6689453,3.4833984c6.4316406,2.3222656,12.2753906,5.765625,17.5273438,10.3330078
				L329.1347656,404.9082031z"/>
			<path style="fill:#FFFFFF;" d="M375.6074219,385.2685547v94.2011719h-14.2734375v-94.2011719H375.6074219z
				 M415.9140625,479.4697266L381.7734375,432.3125l34.140625-47.0439453h17.8125L399.5859375,432.3125l34.140625,47.1572266
				H415.9140625z"/>
		</g>
	</g>
	<g>
	</g>
	<g>
	</g>
	<g>
	</g>
	<g>
	</g>
	<g>
	</g>
	<g>
	</g>
	<g>
	</g>
	<g>
	</g>
	<g>
	</g>
	<g>
	</g>
	<g>
	</g>
	<g>
	</g>
	<g>
	</g>
	<g>
	</g>
	<g>
	</g>
</g>
</svg>
